<svg xmlns="http://www.w3.org/2000/svg" width="512" height="512" viewBox="0 0 512 512">
  <rect x="0" y="0" width="512" height="512" rx="115.2" fill="#2F6BFF"></rect>
  <g transform="translate(0, 7.168)">
    <g transform="translate(256,256) scale(1.18) translate(-256,-256)">
      <g transform="scale(7.529411764705882, 8) translate(-2.799999999999997, -0.46999999999999886)">
        <path d="M37.502,40.82C27.361,40.739 26.893,40.047 26.25,41.329C26.049,41.73 25.973,42.183 25.818,42.604C24.821,45.325 20.967,45.433 20.811,41.486C20.477,33.061 21.355,31.408 21.764,30.638C22.188,29.839 23.216,28.734 23.881,26.62C26.003,19.866 26.826,19.218 34.497,19.149C45.281,19.052 47.433,18.887 49.223,24.588C50.174,27.618 50.115,27.645 51.778,30.343C53.058,32.419 52.853,33.506 53.018,40.495C53.15,46.055 48.867,44.467 48.374,43.599C47.704,42.42 48.175,40.499 45.5,40.57C41.488,40.676 41.503,40.753 37.502,40.82Z" fill="#ffffff"></path>
      </g>
      <path d="M 269.97039246071387 174.56047413631364 Q 270.592 168.44800000000004 267.27281209836053 173.61827346216916 L 223.32558790163944 242.0745265378309 Q 220.00639999999999 247.24480000000003 226.1504 247.24480000000003 L 243.0464 247.24480000000003 Q 249.1904 247.24480000000003 248.1803326219959 253.3052042680247 L 240.47246737800413 299.5523957319753 Q 239.4624 305.6128 242.92738035399188 300.539078767369 L 290.47421964600807 230.91692123263098 Q 293.93919999999997 225.84320000000002 287.79519999999997 225.84320000000002 L 270.8992 225.84320000000002 Q 264.7552 225.84320000000002 265.3768075392861 219.73072586368642 Z" fill="#2F6BFF"></path>
    </g>
  </g>
</svg>